<mxfile host="app.diagrams.net" modified="2024-03-06T01:51:06.770Z" agent="Mozilla/5.0 (Windows NT 10.0; Win64; x64) AppleWebKit/537.36 (KHTML, like Gecko) Chrome/122.0.0.0 Safari/537.36" version="23.1.1" etag="UkygUVY9Tnua0aE_bL3k" type="github">
  <diagram name="第 1 页" id="Nj4gCkxtAVq5mYaS_mag">
    <mxGraphModel>
      <root>
        <mxCell id="0" />
        <mxCell id="1" parent="0" />
      </root>
    </mxGraphModel>
  </diagram>
</mxfile>
